# Blender v2.93.1 OBJ File: ''
# www.blender.org
mtllib untitled.mtl
o Cube
v 1.021317 1.304620 0.504855
v 1.653974 -0.512559 -0.040681
v -0.419175 0.470307 1.613414
v 0.213481 -1.346872 1.067878
v -0.213481 1.346872 -1.067878
v 0.419175 -0.470307 -1.613414
v -1.653974 0.512559 0.040681
v -1.021317 -1.304620 -0.504855
vt 0.625000 0.500000
vt 0.875000 0.500000
vt 0.875000 0.750000
vt 0.625000 0.750000
vt 0.375000 0.750000
vt 0.625000 1.000000
vt 0.375000 1.000000
vt 0.375000 0.000000
vt 0.625000 0.000000
vt 0.625000 0.250000
vt 0.375000 0.250000
vt 0.125000 0.500000
vt 0.375000 0.500000
vt 0.125000 0.750000
vn -0.3163 0.9086 0.2728
vn -0.7202 -0.4172 0.5543
vn -0.6174 0.0211 -0.7864
vn 0.3163 -0.9086 -0.2728
vn 0.6174 -0.0211 0.7864
vn 0.7202 0.4172 -0.5543
usemtl Material
s off
f 1/1/1 5/2/1 7/3/1 3/4/1
f 4/5/2 3/4/2 7/6/2 8/7/2
f 8/8/3 7/9/3 5/10/3 6/11/3
f 6/12/4 2/13/4 4/5/4 8/14/4
f 2/13/5 1/1/5 3/4/5 4/5/5
f 6/11/6 5/10/6 1/1/6 2/13/6
